# xmcd
#
# Track frame offsets:
# 150
# 20588
# 32337
# 58314
#
# Disc length: 1151 seconds
#
#
# Revision: 0
# Processed by: cddbd v1.5.1PL2 Copyright (c) Steve Scherf et al.
# Submitted via: FreeRIP 2.943 
#
DISCID=2c047d04
DTITLE=Geisha - Hymns for the Living Dead
DYEAR=2004
DGENRE=Noise
TTITLE0=Year of the One Armed Drummer
TTITLE1=This Ruined Art
TTITLE2=How Far Is Nowhere (version)
TTITLE3=Asyouwereleaving
EXTD=
EXTT0=
EXTT1=
EXTT2=
EXTT3=
PLAYORDER=
